<svg id="Layer_1" xmlns="http://www.w3.org/2000/svg" viewBox="0 0 106 30.4"><style>.st0{fill:#fff}</style><path class="st0" d="M24.7 23.3h-4.1v-9.4c0-.2 0-.5-.1-.9-.1-.3-.2-.7-.4-1-.2-.3-.5-.6-.9-.8-.4-.2-.9-.3-1.6-.3-.9 0-1.7.3-2.3.8-.6.6-.9 1.3-.9 2.2v9.4h-4.1v-9.4c0-.2 0-.5-.1-.9-.1-.3-.2-.7-.4-1-.2-.3-.5-.6-.9-.8-.4-.2-.9-.3-1.6-.3-.9 0-1.7.3-2.3.8-.6.6-.9 1.3-.9 2.2v9.4H0V14c0-1 .2-2 .5-2.8.4-1 .8-1.7 1.5-2.4.6-.6 1.4-1.2 2.3-1.5.9-.4 1.9-.5 3-.5s2.1.2 3 .6c.9.4 1.6 1 2.2 1.7.6-.7 1.3-1.3 2.2-1.7.9-.4 1.8-.6 2.9-.6 1.1 0 2.1.2 3 .5.9.4 1.6.8 2.3 1.5.6.6 1.1 1.4 1.4 2.3.3.9.5 1.8.5 2.9v9.3zM34 6.8c1.1 0 2.2.2 3.2.6 1 .4 1.8 1 2.6 1.8.7.8 1.3 1.7 1.7 2.7.4 1 .6 2.2.6 3.4 0 1.2-.2 2.3-.6 3.3-.4 1-1 1.9-1.7 2.7-.8.7-1.7 1.3-2.7 1.7-1 .4-2 .6-3.2.6-1.1 0-2.2-.2-3.2-.6-1-.4-1.8-1-2.6-1.8-.7-.7-1.3-1.6-1.7-2.7-.4-1-.6-2.1-.6-3.3 0-1.2.2-2.3.6-3.4.4-1 1-1.9 1.7-2.7.7-.8 1.6-1.4 2.6-1.8 1.1-.3 2.1-.5 3.3-.5m0 13.1c.5 0 1.1-.1 1.5-.3.5-.2.9-.5 1.3-.9s.7-.9.9-1.5c.2-.6.3-1.2.3-1.9s-.1-1.3-.3-1.9c-.2-.6-.5-1.1-.9-1.5-.4-.4-.8-.7-1.3-1-.5-.2-1-.3-1.5-.3s-1.1.1-1.6.3c-.5.2-.9.6-1.3 1s-.6.9-.8 1.5c-.2.6-.3 1.2-.3 1.9s.1 1.3.3 1.9c.2.6.5 1 .8 1.5.4.4.8.7 1.3.9.5.1 1 .3 1.6.3M49.1 19.3h2.4c.6 0 1.1-.1 1.7-.3.5-.2 1-.5 1.3-.9.4-.4.7-.8.9-1.3.2-.5.3-1.1.3-1.7 0-.6-.1-1.2-.3-1.7-.2-.5-.5-1-.9-1.4-.4-.4-.8-.7-1.3-.9-.5-.2-1-.3-1.6-.3-.6 0-1.1.1-1.6.4-.5.2-.9.6-1.3 1s-.7.9-.9 1.4c-.2.5-.3 1.1-.3 1.7v15.2h-4.1V15.3c0-1.2.2-2.3.6-3.3.4-1 1-1.9 1.7-2.7.7-.8 1.6-1.4 2.6-1.8 1-.4 2.1-.7 3.3-.7 1.2 0 2.3.2 3.3.7 1 .4 1.9 1.1 2.6 1.8.7.8 1.3 1.6 1.7 2.7.4 1 .6 2.1.6 3.2a8.662 8.662 0 0 1-2.2 5.8c-.7.7-1.5 1.3-2.5 1.7-1 .4-2 .6-3.1.6h-2.9v-4zM75 19.3c-.3.9-.8 1.6-1.5 2.3-.6.6-1.4 1.2-2.3 1.5-.9.4-1.9.5-3 .5s-2.1-.2-3-.5c-.9-.4-1.6-.8-2.3-1.5-.6-.6-1.1-1.4-1.4-2.3-.3-.9-.5-1.8-.5-2.9V7.2h4.1v9.4c0 .2 0 .5.1.9.1.3.2.7.4 1 .2.3.5.6.9.8.4.2.9.3 1.6.3.9 0 1.7-.3 2.2-.9.6-.6.9-1.3.9-2.2V7.2h4.1v9.3c.2 1 .1 1.9-.3 2.8M85.9 7.2c1.1 0 2.1.2 3.1.6 1 .4 1.8 1 2.5 1.7s1.2 1.6 1.6 2.6c.4 1 .6 2 .6 3.2 0 1.1-.2 2.2-.6 3.2-.4 1-1 1.9-1.7 2.7-.7.8-1.6 1.4-2.6 1.8-1 .4-2.1.7-3.3.7-1.2 0-2.3-.2-3.3-.7-1-.4-1.9-1.1-2.6-1.8-.7-.8-1.3-1.7-1.7-2.7-.4-1-.6-2.1-.6-3.3V0h4.1v15.2c0 .6.1 1.2.3 1.8.2.5.5 1 .9 1.4.4.4.8.7 1.3 1 .5.2 1 .3 1.6.3.6 0 1.1-.1 1.6-.3.5-.2.9-.5 1.3-.9s.7-.8.9-1.4c.2-.5.3-1.1.3-1.7 0-.6-.1-1.1-.3-1.6-.2-.5-.5-1-.9-1.3-.4-.5-.9-.8-1.4-1-.5-.2-1.1-.3-1.7-.3H83v-4h2.9zM106 1c-.4.2-.8.3-1.2.3.4-.3.8-.7.9-1.2-.4.2-.9.4-1.3.5-.4-.4-1-.6-1.6-.6-1.2 0-2.1 1-2.1 2.1 0 .2 0 .3.1.5-1.8-.1-3.3-.9-4.4-2.2-.2.3-.3.7-.3 1.1 0 .7.4 1.4.9 1.8-.3 0-.7-.1-1-.3 0 1 .7 1.9 1.7 2.1-.2 0-.4.1-.6.1h-.4c.3.8 1.1 1.4 2 1.5-.7.6-1.6.9-2.6.9h-.5c.9.6 2 .9 3.2.9 3.9 0 6-3.2 6-6v-.3c.6-.4.9-.8 1.2-1.2"/></svg>